M48
METRIC,LZ,000.000
;FILE_FORMAT=3:3
;TYPE=PLATED
;Layer: PTH_Through
;EasyEDA v6.5.39, 2024-01-17 10:02:44
;1fef0b057c1544a4ae72d55d562c7267,bea696f6f0d84e5180a10d4e04dd4222,10
;Gerber Generator version 0.2
;Holesize 1 = 0.306 mm
T01C0.306
;Holesize 2 = 0.901 mm
T02C0.901
;Holesize 3 = 0.945 mm
T03C0.945
;Holesize 4 = 1.000 mm
T04C1.000
;Holesize 5 = 2.540 mm
T05C2.540
%
G05
G90
T01
X057896Y115707
T02
X048387Y108966
X045847Y124206
X040766Y124206
X035686Y124206
X030606Y124206
X025526Y124206
X020446Y124206
X015366Y124206
X012827Y108966
X017908Y108966
X022988Y108966
X028068Y108966
X033148Y108966
X038228Y108966
X043307Y108966
X045847Y108966
X040767Y108966
X035687Y108966
X030607Y108966
X025527Y108966
X020447Y108966
X015367Y108966
X012827Y124206
X017907Y124206
X022987Y124206
X028067Y124206
X033147Y124206
X038227Y124206
X043307Y124206
X048387Y124206
T03
X054868Y135642G85X054868Y135642
X052328Y135642G85X052328Y135642
X049788Y135642G85X049788Y135642
X047248Y135642G85X047248Y135642
X044708Y135642G85X044708Y135642
X042168Y135642G85X042168Y135642
X039628Y135642G85X039628Y135642
X037088Y135642G85X037088Y135642
X034548Y135642G85X034548Y135642
X032008Y135642G85X032008Y135642
X029468Y135642G85X029468Y135642
X026928Y135642G85X026928Y135642
X024388Y135642G85X024388Y135642
X021848Y135642G85X021848Y135642
X019308Y135642G85X019308Y135642
X016768Y135642G85X016768Y135642
T04
X073660Y116586
X073533Y124079
T05
X011265Y135642G85X011271Y135642
X011265Y104642G85X011271Y104642
X086265Y135642G85X086271Y135642
X086265Y104642G85X086271Y104642
M30
