G04 Layer: TopSilkscreenLayer*
G04 EasyEDA v6.5.39, 2024-01-17 10:02:44*
G04 1fef0b057c1544a4ae72d55d562c7267,bea696f6f0d84e5180a10d4e04dd4222,10*
G04 Gerber Generator version 0.2*
G04 Scale: 100 percent, Rotated: No, Reflected: No *
G04 Dimensions in millimeters *
G04 leading zeros omitted , absolute positions ,4 integer and 5 decimal *
%FSLAX45Y45*%
%MOMM*%

%ADD10C,0.1524*%
%ADD11C,0.1999*%

%LPD*%
D10*
X4876800Y13958316D02*
G01*
X4876800Y13849350D01*
X4876800Y13849350D02*
G01*
X4939029Y13849350D01*
X5051297Y13932407D02*
G01*
X5046218Y13942821D01*
X5035804Y13953236D01*
X5025390Y13958316D01*
X5004561Y13958316D01*
X4994147Y13953236D01*
X4983734Y13942821D01*
X4978654Y13932407D01*
X4973320Y13916660D01*
X4973320Y13890752D01*
X4978654Y13875257D01*
X4983734Y13864844D01*
X4994147Y13854429D01*
X5004561Y13849350D01*
X5025390Y13849350D01*
X5035804Y13854429D01*
X5046218Y13864844D01*
X5051297Y13875257D01*
X5085588Y13958316D02*
G01*
X5085588Y13849350D01*
X5085588Y13958316D02*
G01*
X5121909Y13958316D01*
X5137658Y13953236D01*
X5148072Y13942821D01*
X5153152Y13932407D01*
X5158486Y13916660D01*
X5158486Y13890752D01*
X5153152Y13875257D01*
X5148072Y13864844D01*
X5137658Y13854429D01*
X5121909Y13849350D01*
X5085588Y13849350D01*
X5197856Y13932407D02*
G01*
X5197856Y13937487D01*
X5203190Y13947902D01*
X5208270Y13953236D01*
X5218684Y13958316D01*
X5239511Y13958316D01*
X5249925Y13953236D01*
X5255006Y13947902D01*
X5260340Y13937487D01*
X5260340Y13927074D01*
X5255006Y13916660D01*
X5244591Y13901166D01*
X5192775Y13849350D01*
X5265420Y13849350D01*
X5892800Y11697715D02*
G01*
X5892800Y11588750D01*
X5892800Y11697715D02*
G01*
X5939536Y11697715D01*
X5955029Y11692636D01*
X5960363Y11687302D01*
X5965443Y11676887D01*
X5965443Y11666474D01*
X5960363Y11656060D01*
X5955029Y11650979D01*
X5939536Y11645900D01*
X5892800Y11645900D01*
X5929122Y11645900D02*
G01*
X5965443Y11588750D01*
X5999734Y11676887D02*
G01*
X6010147Y11682221D01*
X6025895Y11697715D01*
X6025895Y11588750D01*
D11*
X1778000Y13030200D02*
G01*
X8001000Y13030200D01*
X8001000Y12979400D01*
X1778000Y12979400D01*
X1778000Y13030200D01*
X8890000Y13817600D02*
G01*
X8890000Y10210800D01*
X863600Y10210800D01*
X863600Y13817600D01*
X8890000Y13817600D01*
X8280400Y13258800D02*
G01*
X8280400Y10769600D01*
X1473200Y10769600D01*
X1473200Y13258800D01*
X8280400Y13258800D01*
X8001000Y12623800D02*
G01*
X8001000Y11226800D01*
X1778000Y11226800D01*
X1778000Y12623800D01*
X8001000Y12623800D01*
D10*
X5935421Y11414739D02*
G01*
X6031308Y11414739D01*
X6031308Y11546860D01*
X5935421Y11546860D01*
X5850178Y11414739D02*
G01*
X5754291Y11414739D01*
X5754291Y11546860D01*
X5850178Y11546860D01*
M02*
