G04 Layer: TopLayer*
G04 EasyEDA v6.5.39, 2024-01-17 10:02:44*
G04 1fef0b057c1544a4ae72d55d562c7267,bea696f6f0d84e5180a10d4e04dd4222,10*
G04 Gerber Generator version 0.2*
G04 Scale: 100 percent, Rotated: No, Reflected: No *
G04 Dimensions in millimeters *
G04 leading zeros omitted , absolute positions ,4 integer and 5 decimal *
%FSLAX45Y45*%
%MOMM*%

%AMMACRO1*21,1,$1,$2,0,0,$3*%
%ADD10C,0.2540*%
%ADD11MACRO1,0.864X0.8065X90.0000*%
%ADD12C,2.0320*%
%ADD13R,2.0320X2.0320*%
%ADD14C,3.0480*%
%ADD15MACRO1,1.6X1.6X0.0000*%
%ADD16C,1.6000*%
%ADD17C,2.0000*%
%ADD18C,0.6100*%
%ADD19C,0.0132*%

%LPD*%
G36*
X7365746Y12013184D02*
G01*
X7360208Y12012980D01*
X7354773Y12012320D01*
X7349540Y12011253D01*
X7344511Y12009780D01*
X7339685Y12007850D01*
X7335062Y12005564D01*
X7330694Y12002922D01*
X7326528Y11999823D01*
X7322616Y11996420D01*
X7319009Y11992610D01*
X7315657Y11988444D01*
X7312609Y11983923D01*
X7309866Y11979097D01*
X7307478Y11973915D01*
X7305395Y11968378D01*
X7303668Y11962587D01*
X7302296Y11956440D01*
X7301280Y11949988D01*
X7300671Y11943232D01*
X7300468Y11936222D01*
X7300671Y11929110D01*
X7301280Y11922353D01*
X7302246Y11915851D01*
X7303566Y11909704D01*
X7305294Y11903862D01*
X7307325Y11898325D01*
X7309713Y11893143D01*
X7312406Y11888266D01*
X7315403Y11883796D01*
X7318654Y11879630D01*
X7322210Y11875871D01*
X7326020Y11872468D01*
X7330084Y11869420D01*
X7334402Y11866778D01*
X7338923Y11864492D01*
X7343698Y11862612D01*
X7348626Y11861190D01*
X7353757Y11860123D01*
X7359040Y11859463D01*
X7364475Y11859260D01*
X7371486Y11859615D01*
X7378090Y11860682D01*
X7384237Y11862409D01*
X7390028Y11864797D01*
X7395464Y11867794D01*
X7400493Y11871452D01*
X7405268Y11875719D01*
X7409688Y11880596D01*
X7400544Y11891010D01*
X7396784Y11887149D01*
X7392873Y11883745D01*
X7388859Y11880850D01*
X7384592Y11878411D01*
X7380173Y11876481D01*
X7375448Y11875109D01*
X7370521Y11874296D01*
X7365238Y11873992D01*
X7359903Y11874296D01*
X7354824Y11875109D01*
X7349998Y11876481D01*
X7345476Y11878360D01*
X7341260Y11880748D01*
X7337348Y11883644D01*
X7333792Y11886996D01*
X7330541Y11890857D01*
X7327646Y11895124D01*
X7325055Y11899849D01*
X7322870Y11904980D01*
X7321042Y11910517D01*
X7319619Y11916460D01*
X7318603Y11922760D01*
X7317943Y11929465D01*
X7317740Y11936476D01*
X7317943Y11943486D01*
X7318603Y11950141D01*
X7319670Y11956440D01*
X7321194Y11962333D01*
X7323074Y11967870D01*
X7325309Y11972950D01*
X7327950Y11977624D01*
X7330897Y11981840D01*
X7334250Y11985650D01*
X7337907Y11988952D01*
X7341870Y11991797D01*
X7346137Y11994184D01*
X7350709Y11996013D01*
X7355535Y11997385D01*
X7360666Y11998198D01*
X7366000Y11998452D01*
X7375194Y11997385D01*
X7383373Y11994489D01*
X7390536Y11989968D01*
X7396734Y11984228D01*
X7406131Y11995150D01*
X7402677Y11998604D01*
X7398715Y12001957D01*
X7394295Y12005005D01*
X7389469Y12007697D01*
X7384186Y12009932D01*
X7378446Y12011710D01*
X7372299Y12012777D01*
G37*
G36*
X7488428Y12013184D02*
G01*
X7482890Y12012980D01*
X7477455Y12012320D01*
X7472222Y12011253D01*
X7467193Y12009780D01*
X7462367Y12007850D01*
X7457744Y12005564D01*
X7453375Y12002922D01*
X7449210Y11999823D01*
X7445298Y11996420D01*
X7441692Y11992610D01*
X7438339Y11988444D01*
X7435291Y11983923D01*
X7432548Y11979097D01*
X7430160Y11973915D01*
X7428077Y11968378D01*
X7426350Y11962587D01*
X7424978Y11956440D01*
X7423962Y11949988D01*
X7423353Y11943232D01*
X7423150Y11936222D01*
X7423353Y11929110D01*
X7423962Y11922353D01*
X7424928Y11915851D01*
X7426248Y11909704D01*
X7427975Y11903862D01*
X7430008Y11898325D01*
X7432395Y11893143D01*
X7435088Y11888266D01*
X7438085Y11883796D01*
X7441336Y11879630D01*
X7444892Y11875871D01*
X7448702Y11872468D01*
X7452766Y11869420D01*
X7457084Y11866778D01*
X7461605Y11864492D01*
X7466380Y11862612D01*
X7471308Y11861190D01*
X7476439Y11860123D01*
X7481722Y11859463D01*
X7487158Y11859260D01*
X7494168Y11859615D01*
X7500772Y11860682D01*
X7506970Y11862409D01*
X7512761Y11864797D01*
X7518196Y11867794D01*
X7523327Y11871452D01*
X7528102Y11875719D01*
X7532624Y11880596D01*
X7523225Y11891010D01*
X7519466Y11887149D01*
X7515555Y11883745D01*
X7511542Y11880850D01*
X7507274Y11878411D01*
X7502855Y11876481D01*
X7498130Y11875109D01*
X7493203Y11874296D01*
X7487920Y11873992D01*
X7482586Y11874296D01*
X7477506Y11875109D01*
X7472680Y11876481D01*
X7468158Y11878360D01*
X7463942Y11880748D01*
X7460030Y11883644D01*
X7456474Y11886996D01*
X7453223Y11890857D01*
X7450328Y11895124D01*
X7447737Y11899849D01*
X7445552Y11904980D01*
X7443724Y11910517D01*
X7442301Y11916460D01*
X7441285Y11922760D01*
X7440625Y11929465D01*
X7440422Y11936476D01*
X7440625Y11943486D01*
X7441285Y11950141D01*
X7442352Y11956440D01*
X7443876Y11962333D01*
X7445756Y11967870D01*
X7447991Y11972950D01*
X7450632Y11977624D01*
X7453579Y11981840D01*
X7456931Y11985650D01*
X7460589Y11988952D01*
X7464552Y11991797D01*
X7468819Y11994184D01*
X7473391Y11996013D01*
X7478217Y11997385D01*
X7483348Y11998198D01*
X7488681Y11998452D01*
X7497876Y11997385D01*
X7506055Y11994489D01*
X7513218Y11989968D01*
X7519416Y11984228D01*
X7528814Y11995150D01*
X7525410Y11998604D01*
X7521498Y12001957D01*
X7517130Y12005005D01*
X7512253Y12007697D01*
X7506919Y12009932D01*
X7501178Y12011710D01*
X7494981Y12012777D01*
G37*
G36*
X7176008Y12010644D02*
G01*
X7223759Y11861800D01*
X7243064Y11861800D01*
X7290562Y12010644D01*
X7273544Y12010644D01*
X7236002Y11885726D01*
X7233920Y11879326D01*
X7233158Y11879326D01*
X7225741Y11903811D01*
X7218680Y11928348D01*
X7193534Y12010644D01*
G37*
G36*
X7229602Y12724384D02*
G01*
X7223759Y12724180D01*
X7218121Y12723520D01*
X7212685Y12722453D01*
X7207453Y12720980D01*
X7202424Y12719050D01*
X7197648Y12716764D01*
X7193076Y12714122D01*
X7188809Y12711023D01*
X7184796Y12707620D01*
X7181037Y12703810D01*
X7177633Y12699644D01*
X7174484Y12695123D01*
X7171690Y12690297D01*
X7169200Y12685115D01*
X7167067Y12679578D01*
X7165289Y12673787D01*
X7163866Y12667640D01*
X7162850Y12661188D01*
X7162241Y12654432D01*
X7162038Y12647422D01*
X7162241Y12640310D01*
X7162850Y12633553D01*
X7163816Y12627051D01*
X7165187Y12620904D01*
X7166914Y12615062D01*
X7168997Y12609525D01*
X7171436Y12604343D01*
X7174179Y12599466D01*
X7177227Y12594996D01*
X7180630Y12590830D01*
X7184288Y12587071D01*
X7188200Y12583668D01*
X7192416Y12580620D01*
X7196886Y12577978D01*
X7201560Y12575692D01*
X7206538Y12573812D01*
X7211669Y12572390D01*
X7217054Y12571323D01*
X7222591Y12570663D01*
X7228331Y12570460D01*
X7235596Y12570764D01*
X7242454Y12571730D01*
X7248956Y12573254D01*
X7254951Y12575235D01*
X7260488Y12577724D01*
X7265517Y12580620D01*
X7269937Y12583922D01*
X7273798Y12587478D01*
X7273798Y12649200D01*
X7225792Y12649200D01*
X7225792Y12635230D01*
X7258303Y12635230D01*
X7258303Y12594590D01*
X7252868Y12590678D01*
X7245959Y12587681D01*
X7238136Y12585852D01*
X7229856Y12585192D01*
X7223963Y12585496D01*
X7218425Y12586309D01*
X7213193Y12587681D01*
X7208367Y12589560D01*
X7203846Y12591948D01*
X7199680Y12594844D01*
X7195921Y12598196D01*
X7192467Y12602057D01*
X7189470Y12606324D01*
X7186777Y12611049D01*
X7184542Y12616180D01*
X7182662Y12621717D01*
X7181189Y12627660D01*
X7180173Y12633960D01*
X7179513Y12640665D01*
X7179309Y12647676D01*
X7179564Y12654686D01*
X7180224Y12661341D01*
X7181342Y12667640D01*
X7182866Y12673533D01*
X7184847Y12679070D01*
X7187184Y12684150D01*
X7189927Y12688824D01*
X7193076Y12693040D01*
X7196531Y12696850D01*
X7200341Y12700152D01*
X7204506Y12702997D01*
X7208977Y12705384D01*
X7213803Y12707213D01*
X7218883Y12708585D01*
X7224217Y12709398D01*
X7229856Y12709652D01*
X7240473Y12708534D01*
X7249312Y12705486D01*
X7256576Y12700965D01*
X7262622Y12695428D01*
X7272020Y12706350D01*
X7268565Y12709601D01*
X7264653Y12712801D01*
X7260234Y12715849D01*
X7255306Y12718592D01*
X7249769Y12720929D01*
X7243673Y12722758D01*
X7236968Y12723977D01*
G37*
G36*
X7309866Y12721844D02*
G01*
X7309866Y12573000D01*
X7325614Y12573000D01*
X7325563Y12660325D01*
X7324902Y12677444D01*
X7323581Y12699746D01*
X7324598Y12699746D01*
X7340853Y12669266D01*
X7396734Y12573000D01*
X7414259Y12573000D01*
X7414259Y12721844D01*
X7398258Y12721844D01*
X7398308Y12635585D01*
X7399375Y12612116D01*
X7400544Y12594844D01*
X7399528Y12594844D01*
X7383272Y12625324D01*
X7327138Y12721844D01*
G37*
G36*
X7455662Y12721844D02*
G01*
X7455662Y12707874D01*
X7490968Y12707874D01*
X7497521Y12707620D01*
X7503617Y12706858D01*
X7509306Y12705588D01*
X7514539Y12703860D01*
X7519365Y12701625D01*
X7523784Y12698933D01*
X7527747Y12695783D01*
X7531303Y12692176D01*
X7534402Y12688112D01*
X7537094Y12683642D01*
X7539380Y12678714D01*
X7541259Y12673380D01*
X7542682Y12667589D01*
X7543749Y12661442D01*
X7544358Y12654889D01*
X7544562Y12647930D01*
X7544358Y12641021D01*
X7543749Y12634417D01*
X7542682Y12628219D01*
X7541259Y12622377D01*
X7539380Y12616942D01*
X7537094Y12611912D01*
X7534402Y12607290D01*
X7531303Y12603124D01*
X7527747Y12599365D01*
X7523784Y12596114D01*
X7519365Y12593269D01*
X7514539Y12590983D01*
X7509306Y12589103D01*
X7503617Y12587782D01*
X7497521Y12586970D01*
X7490968Y12586716D01*
X7472680Y12586716D01*
X7472680Y12707874D01*
X7455662Y12707874D01*
X7455662Y12573000D01*
X7493000Y12573000D01*
X7499603Y12573203D01*
X7505852Y12573812D01*
X7511796Y12574879D01*
X7517434Y12576302D01*
X7522718Y12578130D01*
X7527696Y12580366D01*
X7532319Y12582956D01*
X7536637Y12585903D01*
X7540650Y12589256D01*
X7544257Y12592964D01*
X7547559Y12596977D01*
X7550556Y12601346D01*
X7553198Y12606070D01*
X7555484Y12611150D01*
X7557414Y12616484D01*
X7558989Y12622174D01*
X7560208Y12628168D01*
X7561122Y12634468D01*
X7561630Y12641072D01*
X7561834Y12647930D01*
X7561630Y12654788D01*
X7561122Y12661341D01*
X7560208Y12667640D01*
X7558989Y12673584D01*
X7557363Y12679172D01*
X7555433Y12684506D01*
X7553147Y12689484D01*
X7550505Y12694158D01*
X7547508Y12698425D01*
X7544206Y12702438D01*
X7540498Y12706045D01*
X7536484Y12709296D01*
X7532116Y12712192D01*
X7527442Y12714732D01*
X7522413Y12716865D01*
X7517028Y12718643D01*
X7511338Y12720015D01*
X7505293Y12721031D01*
X7498943Y12721640D01*
X7492238Y12721844D01*
G37*
G36*
X1019048Y12165584D02*
G01*
X1012596Y12165228D01*
X1006449Y12164263D01*
X1000709Y12162688D01*
X995375Y12160554D01*
X990498Y12157811D01*
X986180Y12154611D01*
X982319Y12150953D01*
X979119Y12146838D01*
X976528Y12142317D01*
X974648Y12137440D01*
X973480Y12132259D01*
X973074Y12126722D01*
X973785Y12119152D01*
X975868Y12112548D01*
X979017Y12106859D01*
X983030Y12101982D01*
X987704Y12097816D01*
X992784Y12094311D01*
X998067Y12091365D01*
X1003300Y12088876D01*
X1030071Y12077141D01*
X1034846Y12074753D01*
X1039164Y12072213D01*
X1042924Y12069368D01*
X1046022Y12066066D01*
X1048308Y12062206D01*
X1049782Y12057583D01*
X1050290Y12052046D01*
X1049731Y12046559D01*
X1048003Y12041632D01*
X1045260Y12037212D01*
X1041552Y12033504D01*
X1036828Y12030506D01*
X1031240Y12028271D01*
X1024788Y12026849D01*
X1017524Y12026392D01*
X1011682Y12026747D01*
X1005890Y12027712D01*
X1000302Y12029338D01*
X994867Y12031522D01*
X989685Y12034215D01*
X984758Y12037415D01*
X980135Y12041124D01*
X975868Y12045188D01*
X965708Y12033758D01*
X970787Y12028881D01*
X976274Y12024512D01*
X982167Y12020753D01*
X988466Y12017552D01*
X995171Y12015012D01*
X1002233Y12013184D01*
X1009700Y12012066D01*
X1017524Y12011660D01*
X1024890Y12012015D01*
X1031798Y12013133D01*
X1038148Y12014860D01*
X1043990Y12017248D01*
X1049223Y12020245D01*
X1053846Y12023750D01*
X1057859Y12027712D01*
X1061161Y12032132D01*
X1063802Y12036958D01*
X1065733Y12042140D01*
X1066901Y12047575D01*
X1067308Y12053316D01*
X1066698Y12061037D01*
X1064920Y12067794D01*
X1062075Y12073636D01*
X1058316Y12078665D01*
X1053795Y12082983D01*
X1048562Y12086742D01*
X1042771Y12090044D01*
X1036574Y12092940D01*
X1010615Y12104014D01*
X1002080Y12108484D01*
X998270Y12111228D01*
X994968Y12114428D01*
X992378Y12118238D01*
X990701Y12122708D01*
X990092Y12127992D01*
X990650Y12132970D01*
X992174Y12137440D01*
X994714Y12141352D01*
X998067Y12144654D01*
X1002284Y12147296D01*
X1007211Y12149226D01*
X1012850Y12150445D01*
X1019048Y12150852D01*
X1024229Y12150598D01*
X1029106Y12149836D01*
X1033729Y12148616D01*
X1038098Y12146991D01*
X1042212Y12144908D01*
X1046124Y12142470D01*
X1049832Y12139726D01*
X1053338Y12136628D01*
X1062228Y12147296D01*
X1058164Y12151156D01*
X1053693Y12154662D01*
X1048766Y12157760D01*
X1043482Y12160453D01*
X1037844Y12162586D01*
X1031849Y12164212D01*
X1025601Y12165228D01*
G37*
G36*
X832866Y12163044D02*
G01*
X832866Y12074652D01*
X833119Y12066117D01*
X833932Y12058294D01*
X835202Y12051182D01*
X836980Y12044781D01*
X839165Y12038990D01*
X841806Y12033859D01*
X844803Y12029287D01*
X848207Y12025325D01*
X851916Y12021921D01*
X855980Y12019076D01*
X860298Y12016689D01*
X864920Y12014809D01*
X869746Y12013387D01*
X874776Y12012422D01*
X880059Y12011863D01*
X885444Y12011660D01*
X890879Y12011863D01*
X896162Y12012422D01*
X901242Y12013387D01*
X906119Y12014809D01*
X910742Y12016689D01*
X915111Y12019076D01*
X919175Y12021921D01*
X922883Y12025325D01*
X926287Y12029287D01*
X929335Y12033859D01*
X931976Y12038990D01*
X934161Y12044781D01*
X935939Y12051182D01*
X937209Y12058294D01*
X938021Y12066117D01*
X938276Y12074652D01*
X938276Y12163044D01*
X922019Y12163044D01*
X922019Y12074398D01*
X921664Y12065762D01*
X920699Y12058142D01*
X919175Y12051487D01*
X917041Y12045696D01*
X914450Y12040768D01*
X911352Y12036653D01*
X907846Y12033351D01*
X903935Y12030710D01*
X899718Y12028728D01*
X895197Y12027408D01*
X890422Y12026646D01*
X885444Y12026392D01*
X880618Y12026646D01*
X875995Y12027408D01*
X871626Y12028728D01*
X867511Y12030710D01*
X863752Y12033351D01*
X860348Y12036653D01*
X857300Y12040768D01*
X854760Y12045696D01*
X852678Y12051487D01*
X851153Y12058142D01*
X850188Y12065762D01*
X849884Y12074398D01*
X849884Y12163044D01*
G37*
G36*
X1097026Y12163044D02*
G01*
X1097026Y12149582D01*
X1137666Y12149582D01*
X1146149Y12149226D01*
X1153566Y12148210D01*
X1159865Y12146432D01*
X1164996Y12143892D01*
X1169009Y12140438D01*
X1171905Y12136069D01*
X1173683Y12130786D01*
X1174242Y12124436D01*
X1173734Y12118898D01*
X1172159Y12113920D01*
X1169466Y12109602D01*
X1165555Y12105944D01*
X1160373Y12102998D01*
X1153871Y12100814D01*
X1145997Y12099493D01*
X1136650Y12099036D01*
X1114044Y12099036D01*
X1114044Y12149582D01*
X1097026Y12149582D01*
X1097026Y12086082D01*
X1140714Y12086082D01*
X1147267Y12085878D01*
X1153312Y12085370D01*
X1158798Y12084456D01*
X1163777Y12083135D01*
X1168247Y12081459D01*
X1172108Y12079376D01*
X1175410Y12076938D01*
X1178153Y12074042D01*
X1180338Y12070740D01*
X1181862Y12067082D01*
X1182827Y12062917D01*
X1183132Y12058396D01*
X1182827Y12053316D01*
X1181811Y12048693D01*
X1180236Y12044578D01*
X1178001Y12040920D01*
X1175207Y12037771D01*
X1171803Y12035028D01*
X1167892Y12032742D01*
X1163472Y12030913D01*
X1158494Y12029440D01*
X1153007Y12028474D01*
X1147114Y12027865D01*
X1140714Y12027662D01*
X1114044Y12027662D01*
X1114044Y12086082D01*
X1097026Y12086082D01*
X1097026Y12014200D01*
X1143508Y12014200D01*
X1149604Y12014352D01*
X1155496Y12014860D01*
X1161034Y12015724D01*
X1166317Y12016892D01*
X1171295Y12018416D01*
X1175867Y12020296D01*
X1180134Y12022531D01*
X1184046Y12025071D01*
X1187551Y12027966D01*
X1190650Y12031167D01*
X1193342Y12034723D01*
X1195527Y12038634D01*
X1197305Y12042851D01*
X1198575Y12047474D01*
X1199388Y12052350D01*
X1199642Y12057634D01*
X1199083Y12064847D01*
X1197406Y12071299D01*
X1194714Y12076938D01*
X1191107Y12081814D01*
X1186688Y12085929D01*
X1181404Y12089231D01*
X1175461Y12091720D01*
X1168908Y12093448D01*
X1168908Y12094210D01*
X1173937Y12096394D01*
X1178356Y12099239D01*
X1182166Y12102642D01*
X1185265Y12106605D01*
X1187754Y12111075D01*
X1189532Y12115901D01*
X1190650Y12121032D01*
X1191006Y12126468D01*
X1190599Y12132614D01*
X1189329Y12138152D01*
X1187297Y12143130D01*
X1184554Y12147448D01*
X1181100Y12151258D01*
X1176934Y12154458D01*
X1172159Y12157151D01*
X1166825Y12159335D01*
X1160881Y12160961D01*
X1154480Y12162129D01*
X1147572Y12162840D01*
X1140206Y12163044D01*
G37*
D10*
X2552702Y10896597D02*
G01*
X2965147Y11309042D01*
X5796384Y11309042D01*
X5899889Y11412547D01*
X5899889Y11480797D01*
X5968138Y11480797D02*
G01*
X5899889Y11480797D01*
X5817466Y11551917D02*
G01*
X5808322Y11551917D01*
X5789576Y11570662D01*
X5817466Y11480797D02*
G01*
X5817466Y11551917D01*
X4584702Y12420597D02*
G01*
X4696310Y12532205D01*
X7228994Y12532205D01*
X7353302Y12407897D01*
X1676808Y13564207D02*
G01*
X1811251Y13698649D01*
X2558366Y13698649D01*
X2692808Y13564207D01*
X2692808Y13564207D02*
G01*
X2837258Y13708656D01*
X5342359Y13708656D01*
X5486808Y13564207D01*
X4946627Y12420597D02*
G01*
X5708627Y11658597D01*
X7366002Y11658597D01*
X4838702Y12420597D02*
G01*
X4946627Y12420597D01*
X1930808Y13564207D02*
G01*
X2962709Y12532306D01*
X4125140Y12532306D01*
X4203702Y12453744D01*
X4203702Y12377696D01*
X4277083Y12304316D01*
X4641471Y12304316D01*
X4730777Y12393622D01*
X4730777Y12420597D01*
X4838702Y12420597D02*
G01*
X4730777Y12420597D01*
D11*
G01*
X5968124Y11480800D03*
G01*
X5817475Y11480800D03*
D12*
G01*
X5486806Y13564209D03*
G01*
X5232806Y13564209D03*
G01*
X4978806Y13564209D03*
G01*
X4724806Y13564209D03*
G01*
X4470806Y13564209D03*
G01*
X4216806Y13564209D03*
G01*
X3962806Y13564209D03*
G01*
X3708806Y13564209D03*
G01*
X3454806Y13564209D03*
G01*
X3200806Y13564209D03*
G01*
X2946806Y13564209D03*
G01*
X2692806Y13564209D03*
G01*
X2438806Y13564209D03*
G01*
X2184806Y13564209D03*
G01*
X1930806Y13564209D03*
D13*
G01*
X1676806Y13564209D03*
D14*
G01*
X1126794Y13564209D03*
G01*
X1126794Y10464190D03*
G01*
X8626805Y13564209D03*
G01*
X8626805Y10464190D03*
D15*
G01*
X4838700Y10896600D03*
D16*
G01*
X4584700Y12420600D03*
G01*
X4076700Y12420600D03*
G01*
X3568700Y12420600D03*
G01*
X3060700Y12420600D03*
G01*
X2552700Y12420600D03*
G01*
X2044700Y12420600D03*
G01*
X1536700Y12420600D03*
G01*
X1282700Y10896600D03*
G01*
X1790700Y10896600D03*
G01*
X2298700Y10896600D03*
G01*
X2806700Y10896600D03*
G01*
X3314700Y10896600D03*
G01*
X3822700Y10896600D03*
G01*
X4330700Y10896600D03*
G01*
X4584700Y10896600D03*
G01*
X4076700Y10896600D03*
G01*
X3568700Y10896600D03*
G01*
X3060700Y10896600D03*
G01*
X2552700Y10896600D03*
G01*
X2044700Y10896600D03*
G01*
X1536700Y10896600D03*
G01*
X1282700Y12420600D03*
G01*
X1790700Y12420600D03*
G01*
X2298700Y12420600D03*
G01*
X2806700Y12420600D03*
G01*
X3314700Y12420600D03*
G01*
X3822700Y12420600D03*
G01*
X4330700Y12420600D03*
D15*
G01*
X4838700Y12420600D03*
D17*
G01*
X7366000Y11658600D03*
G01*
X7353300Y12407900D03*
D18*
G01*
X5789576Y11570662D03*
M02*
